<svg width="325" height="313" viewBox="0 0 325 313" fill="none" xmlns="http://www.w3.org/2000/svg">
    <g opacity=".35" clip-path="url(#8nyqy8vuwa)">
        <path fill-rule="evenodd" clip-rule="evenodd" d="M7.497 214.513c-.62-9.775-1.24-19.784-1.843-29.643L4.53 166.055l-.202-3.459c-.955-4.011-.938-8.255-.82-11.931l-2.582.2c-.52.034-.838-.25-.905-.518-.084-.284.067-.634.57-.751 3.268-.769 3.62-.819 6.989-1.471 44.517-40.939 59.384-80.073 44.182-116.3-10.828-7.135-23.55-16.96-33.907-22.758-.37-.218-.37-.552-.185-.786.184-.234.587-.35.972-.133C48.126 24.49 84.162 34.716 125.78 38.543c18.906 1.738 39.002 2.255 61.479 1.554 15.202-.468 33.17-1.354 51.104-4.311 21.052-3.46 38.299-9.458 52.697-18.314a.536.536 0 0 1 .67.083c.168.167.151.385-.05.518-26.399 17.596-62.904 21.489-95.152 22.976-23.616 1.086-44.92.92-64.58-.568-20.181-1.537-38.635-4.445-56.083-8.806-19.007-4.746-35.851-11.48-51.791-19.818 19.443 12.7 31.393 21.255 50.853 34.088 6.034 3.977 12.05 7.954 18.085 11.93 17.465 11.497 66.29 16.76 88.079 15.324 13.677-.903 27.102-3.309 39.941-7.135 11.716-3.493 21.773-8.389 32.433-13.569A6139.377 6139.377 0 0 1 312.33.16a.644.644 0 0 1 .553-.15c.218.05.419.2.502.384.084.2.034.385-.134.535a3283.152 3283.152 0 0 0-22.912 20.135c-.62 1.705-1.425 3.41-2.196 5.047-.771 1.62-1.575 3.308-2.179 4.996-1.391 3.86-2.463 7.937-3.201 12.098-1.374 7.82-1.441 15.807-.218 23.728 2.28 14.821 9.336 29.342 20.968 43.161a1166.03 1166.03 0 0 1 20.918-2.891c.251-.033.486.083.553.301.067.2-.084.401-.335.451-10.509 2.105-18.588 3.342-28.578 4.745-27.253 44.081-26.834 93.826-26.432 141.933a2466.67 2466.67 0 0 0 18.152 24.58c.118.15.051.317-.117.401-.201.084-.436.033-.553-.117a1456.198 1456.198 0 0 1-15.571-20.469c-.134.05-.318.033-.486.016-34.779-2.64-67.882 10.878-84.392 34.472a854.47 854.47 0 0 1-.62 19.2c0 .167-.167.284-.385.284h-.017c-.201-.017-.369-.15-.369-.317-.151-7.988-.167-14.488-.151-21.506-25.879-26.702-55.529-48.609-88.129-65.084-10.241 12.833-20.264 25.8-30.522 38.616-.234.301-.67.367-1.039.184-.352-.167-.587-.552-.335-.919 5.698-8.222 12.068-16.744 19.46-26.068-.889-19.266-6.27-36.042-16.46-51.282-6.587-9.858-14.934-18.848-24.806-26.702-1.056 11.179-7.308 17.579-18.069 18.498-6.067.518-12.386-2.139-16.476-6.951a19.553 19.553 0 0 1-2.966-4.696c1.022 15.874 1.977 31.999 2.9 47.589m176.392 75.595c.017-3.191.05-6.533.084-10.176-16.175-28.022-45.506-51.098-80.486-63.296a1014.792 1014.792 0 0 0-7.007 8.689c34.897 17.612 65.1 40.003 87.409 64.783zm44.5-126.258c.269-1.788.587-3.576.973-5.331a87.242 87.242 0 0 1 20.515-40.086c-3.352.367-6.704.735-9.973 1.086-1.089 8.087-3.62 15.623-7.509 22.441-2.497 4.361-6.134 9.257-12.42 8.271-2.732-.418-5.246-1.855-7.508-4.261-2.598 7.553-3.42 15.49-2.414 23.611.017.15-.117.284-.302.301-.05 0-.117 0-.167-.017.016.017.033.05.05.067.033.017.05.033.084.033.067.034.134.067.184.101.134.083.235.183.252.317a.4.4 0 0 1-.068.267 1786.998 1786.998 0 0 0 20.7 30.964 90.285 90.285 0 0 1-3.033-32.35c.15-1.839.368-3.627.636-5.414zm-98.571-81.494c-.62-.184-1.24-.35-1.86-.534l1.81 1.203.033-.602c0-.033 0-.05.017-.067zM109.79 88.84c-1.073 6.467-3.319 13.017-6.671 19.316a71.09 71.09 0 0 1-7.258 11.012c-6.05 7.553-13.593 13.886-22.057 18.398l1.39-.234c2.884-.502 5.75-1.003 8.616-1.504 3.939-.702 15.722-2.156 18.253-3.66 10.19-6.065 17.867-13.585 22.795-22.324 4.073-7.219 5.212-14.237 5.799-22.274.084-1.153.168-2.323.235-3.509l-5.096-3.359h-.033a.824.824 0 0 1-.436-.3l-15.856-10.477c1.308 6.032 1.408 12.432.319 18.915zm2.078 116.199c6.57-7.636 12.604-14.604 19.577-22.357-.469-9.592-2.347-17.211-6.001-24.229a47.18 47.18 0 0 0-1.676-2.975c-4.19-6.917-10.19-13.184-18.252-19.032a103.688 103.688 0 0 0-3.587-2.49c-6.956 1.304-12.588 2.356-17.733 3.275-2.33.418-4.66.836-6.99 1.237l-2.866.501c13.71 6.701 25.108 16.977 32.114 29.008 7.14 12.265 9.051 25.366 5.414 37.062zm73.748 49.662a111.813 111.813 0 0 0-12.084-17.345c-13.811-16.342-32.6-29.509-54.524-37.981a713.63 713.63 0 0 0-6.587 7.77c-2.564 3.074-4.492 5.38-6.905 8.338a167.75 167.75 0 0 1 25.024 11.079c23.666 12.866 42.908 30.829 54.657 51.482.051-3.058.084-6.249.151-9.808.084-4.763.168-8.84.268-13.535zm40.679-131.756a60.95 60.95 0 0 1 2.682-2.39c-1.006.1-2.028.184-3.034.284l-.653.05c-7.627 4.813-12.655 9.291-16.326 14.488a.278.278 0 0 1 .017.117l.05.2c.704 2.557 2.096 5.381 3.755 7.67 2.833-7.703 7.459-14.671 13.509-20.419zm-12.302 21.923c2.078 2.372 5.481 5.029 9.939 4.361 6-.886 8.967-7.703 10.928-12.215.151-.351.302-.685.436-1.002 2.296-5.147 3.889-10.711 4.76-16.56-3.52.368-6.47.652-9.218.919-7.945 7.436-13.61 15.674-16.845 24.497zm-9.068-22.074c-3.771 3.994-6.151 7.703-7.442 11.664a26.1 26.1 0 0 0-1.29 6.884c-.067 1.587 0 4.044.234 5.698.838 1.788 1.928 3.375 4.609 7.569.135-5.146 1.526-10.426 3.973-15.339a42.577 42.577 0 0 1 2.799-4.762 20.454 20.454 0 0 1 1.324-12.315c-1.24.083-2.464.183-3.704.267-.117.033-.302.117-.503.334zm-18.437 72.002v-.468c-.134-.083-.235-.2-.251-.317a.432.432 0 0 1 .016-.251.517.517 0 0 1 .168-.217c.033-.017.05-.033.084-.05l.117-9.374c-5.012-11.63-16.208-19.851-32.382-23.761a417.241 417.241 0 0 0-6.688 7.051c-.402.451-.821.886-1.223 1.337l-.704.769c18.034 2.823 33.572 12.448 40.863 25.281zm-38.282-23.861a95.462 95.462 0 0 1 10.123 5.715 87.1 87.1 0 0 1 6.118 4.344 84.986 84.986 0 0 1 5.548 4.679c7.861 7.269 13.61 15.506 16.309 23.795l.167-13.268c-.017-.017-.033-.033-.05-.067-7.962-12.833-21.84-21.956-38.215-25.198zm39.874-11.714c-.05 3.877-.1 7.486-.134 11.296 3.386-2.573 8.498-3.726 13.627-3.325 2.447.184 4.894.718 7.174 1.621-1.609-2.49-3.219-4.98-4.828-7.486-4.542-2.59-9.302-3.225-15.839-2.106zm14.968.736-.369-.585c-.218-.351-.452-.702-.67-1.053 0 .418.016.785.016 1.153.336.15.688.317 1.023.485zm-7.978-56.73c-10.51 3.008-22.913 2.891-33.187-.485 15.487 8.573 32.868 3.359 33.354 3.593l1.023-.952.083-.084c1.375-1.303 2.749-2.59 4.107-3.893l.117-.117c-.788.334-1.592.651-2.43.952l-3.067.986zm-45.255 20.035c2.179-.434 3.821-.769 5.799-1.17 2.732-.551 5.431-1.103 8.146-1.654 2.916-.585 2.967-.418 2.665-1.721-.251-1.019-.469-2.072-.687-3.091-.922-4.362-1.861-8.89-5.632-12.382a169.52 169.52 0 0 1-1.793-1.003c3.033 7.703-.604 16.61-8.498 21.021zm37.025 42.409c-6.973-7.085-14.984-11.563-24.454-13.685l-2.414 2.473c-1.626 1.671-3.268 3.342-4.894 5.013 13.526 2.156 26.298 11.329 31.561 22.558.067-5.999.134-10.527.201-16.359zm.017-1.353c.067-5.364.1-8.188.167-14.437-3.788-4.596-8.766-7.135-15.235-7.754a442.474 442.474 0 0 1-8.532 8.94c9.822 2.306 18.353 7.102 23.6 13.251zm-15.806-23.828c.888-.836 2.397-2.223 3.419-3.158.57-1.387.185-3.994-3.084-9.007-.586-.718-1.206-1.454-1.726-2.172-1.123-1.571-1.911-3.092-2.581-5.197-.604.017-2.062.368-2.548.468-.453.1-.905.184-1.358.284 6.722 4.545 9.806 11.964 7.878 18.782zm1.659.668c5.783.535 11.398 3.409 14.348 7.336l.067-5.916c-3.637-2.656-7.241-3.976-11.565-4.244-.101 0-.185-.017-.268-.017-.872.936-1.727 1.889-2.582 2.841zm-2.916.535c.587-1.805.838-3.609.771-5.381-.184-5.347-3.201-10.46-8.665-14.337-1.626.351-3.235.685-4.861 1.02l-1.626.334c6.755 6.45 10.342 14.42 10.157 22.541a201.56 201.56 0 0 1 4.224-4.177zm24.404-34.121c-1.022-.168-4.375.651-6.269 1.019-1.223.234-2.279.434-2.815.468a46.34 46.34 0 0 1-10.426-.669 43.487 43.487 0 0 1-9.151-2.673c-.218-.1-.47-.201-.738-.301-.57-.234-1.19-.468-1.76-.752 2.414 3.208 3.135 6.884 3.839 10.444.318 1.604.636 3.241 1.123 4.812.888 2.924 2.48 5.063 4.19 7.336a73.324 73.324 0 0 1 1.844 2.54c1.424 2.072 1.642 3.575 1.927 5.681.034.2.101.451.034.635-.302.902-.168 1.036.184 1.169l.101.084c.234.167 2.111.434 3.117.585.872.134 1.391.2 1.576.267 2.363.735 4.441 1.805 6.168 3.225.486-.518 3.05-2.005 3.871-2.74-.016 0 .017 0 0 0 1.241-2.674 6.688-14.02 6.319-16.259-.1-.651-.821-1.57-1.508-2.439-.57-.736-1.123-1.421-1.375-2.006a14.795 14.795 0 0 1-1.089-3.793c-.117-.668.62-6.416.838-6.633zm-6.101 50.496c3.872-1.086 8.732-.685 13.141 1.07a34.393 34.393 0 0 1-.185-2.289 1955.45 1955.45 0 0 1-10.056-15.975l-2.816 1.621c-.134.1-.067 13.986-.084 15.573zm-34.36.284c-.972-11.229-6.151-21.505-15.822-31.414a2650.8 2650.8 0 0 1-34.411 6.734c16.108 9.675 27.12 25.867 28.762 41.373a36 36 0 0 1 .117 6.584c7.04-7.82 14.231-15.54 21.354-23.277zm.771-.818c2.967-3.209 6.453-6.952 10.107-10.678.302-8.655-3.269-16.693-10.308-23.277a3200.205 3200.205 0 0 1-15.035 3.109l-.017.016c9.085 7.937 14.75 19.417 15.253 30.83zm-7.66-33.67c9.554-5.866 12.789-13.251 9.889-22.592-2.497-1.537-4.995-3.242-7.241-4.796 4.325 9.291 1.123 20.771-7.944 28.44 1.776-.351 3.536-.702 5.296-1.052zm3.52-28.323c1.073.685 2.162 1.353 3.252 2.055.117.05.218.1.335.15 4.307 2.005 8.917 3.927 14.096 5.147.855.2 1.743.367 2.631.535.218.033.403.083.62.133 2.23.385 4.543.618 7.007.685 8.179.218 15.906-1.336 24.337-4.912.704-.669 1.424-1.337 2.128-2.005.905-.853 1.794-1.705 2.699-2.557-9.487 2.724-20.264 3.96-31.243 3.576-8.095-.284-19.526-1.387-29.281-4.996 1.106.735 2.279 1.47 3.419 2.189zm46.026 10.861-.989.902c-1.911 5.08-.872 10.327 2.916 14.805.051-.017.118-.033.185-.05l5.128-.451c-4.257-4.194-6.821-9.558-7.24-15.206zm2.631 16.492c-1.793 4.312-4.358 8.74-7.039 17.395a666.768 666.768 0 0 0 2.983 4.762c-.754-8.505 2.481-16.626 8.967-22.491-1.626.117-3.268.234-4.911.334zm9.537 10.544a41.944 41.944 0 0 1 14.348-12.332c-4.191.368-8.515.719-12.839 1.036-1.576 3.777-2.095 7.587-1.509 11.296zm.604 5.397a21.155 21.155 0 0 1-.889-2.456c-.167.251-.352.501-.519.769-3.554 5.715-5.481 12.114-5.749 19.015 2.631 4.094 5.413 8.405 8.514 13.168-1.575-8.138-.905-16.76 1.911-24.948-1.592-2.055-2.665-4.161-3.268-5.548zm.519 31.431a21.577 21.577 0 0 0-6.704-1.971c-.369-.05-.754-.067-1.123-.101-.084 0-.168-.016-.252-.016-.318-.017-.637-.017-.938-.017-.151 0-.302-.017-.453 0-.385 0-.771.033-1.156.05-.084 0-.151 0-.235.017-.888.067-1.777.2-2.665.384-.033 0-.067.017-.117.017-.922.2-1.844.451-2.749.769a25.75 25.75 0 0 0-2.129.868 25.598 25.598 0 0 0-3.235 1.755l-.15 12.733.05.133c.033.101.017.184-.05.251l-.101 7.536c5.984-3.96 14.381-5.681 22.476-5.08 4.694.351 9.286 1.488 13.275 3.443a1292.746 1292.746 0 0 1-13.744-20.771zm-26.801 34.456c-3.486-6.4-7.341-11.998-12.755-17.278-5.246-5.13-11.381-9.608-18.286-13.384a101.332 101.332 0 0 0-7.157-3.543 1317.24 1317.24 0 0 0-12.504 13.819c13.124 4.328 24.605 12.466 31.964 18.565 9.738 8.07 17.297 16.993 21.94 25.883l.218-17.412c-1.14-2.306-2.263-4.528-3.42-6.65zm2.934 25.415c-6.705-10.894-13.694-19.199-21.991-26.134-9.671-8.07-20.8-13.551-32.298-18.898a1334.832 1334.832 0 0 0-11.75 13.384c29.5 11.463 53.451 31.381 65.871 54.808.033-2.54.838-22.491.168-23.16zm-60.223-119.391a58.188 58.188 0 0 1-2.045 3.242c-5.061 7.419-11.967 13.669-20.197 18.247 12.202-2.272 24.455-4.645 36.573-7.018 9.168-7.653 12.001-17.93 8.179-29.727a169.772 169.772 0 0 0-4.056-2.757l-11.816-7.803c.972 7.536-1.442 16.91-6.638 25.816zm6.436-27.186 10.744 7.085c1.324.35 2.632.701 3.939 1.069 9.504 2.573 18.471 5.013 28.678 5.498 10.66.517 21.437-.635 32.952-3.526 1.09-.786 8.9-8.038 10.007-9.057-.805.401-1.626.785-2.431 1.136-25.376 11.196-56.333 4.579-84.123-3.325.084.384.167.769.234 1.12zm77.319 10.878c-.419 8.071 3.117 15.456 10.526 22.006a53.244 53.244 0 0 0 3.402 2.758c.118.083.134.233.034.334a.377.377 0 0 1-.436.05c-9.151-4.913-15.001-14.538-14.683-24.079l-3.653 3.376c.033.033.067.066.083.117.067.15.017.3-.134.384-.368.217-.754.418-1.139.618-1.844 1.704-3.688 3.409-5.532 5.097.218 5.831 2.397 11.061 6.822 16.442 15.018-1.32 30.891-2.774 45.758-4.378-17.499-5.297-27.907-20.703-29.299-33.503-3.871 3.526-8.145 7.47-11.749 10.778zm22.208 9.223c5.498 6.083 12.688 9.943 19.644 13.201.084.034.134.1.151.167 3.57-.384 7.023-.768 10.375-1.169 2.045-.234 4.224-.502 6.637-.802-19.342-8.556-32.65-26.853-32.633-44.833-4.559 4.178-9.118 8.338-13.677 12.533.653 7.536 3.939 14.754 9.503 20.903zm-7.24 88.763c-12.622-5.247-25.293-4.646-36.674 1.721l-.402 32.55c3.939-7.686 11.984-13.451 21.773-15.54a31.509 31.509 0 0 1 2.564-.434l.788-.101c.62-.066 1.257-.133 1.894-.183.285-.017.553-.034.838-.05a44.482 44.482 0 0 1 2.129-.051h.519c.889.017 1.794.051 2.682.117h.134l.402.051c.755.066 1.509.15 2.263.25.268.034.52.067.771.117.771.117 1.525.251 2.28.401.15.034.301.05.452.084.905.2 1.777.417 2.648.668.201.067.403.117.62.184.671.2 1.341.418 1.995.652.235.083.486.167.721.267.737.284 1.458.568 2.162.886.084.033.184.066.268.117.788.35 1.542.735 2.28 1.136.201.117.385.217.586.334a25.29 25.29 0 0 1 1.593.986c.201.134.385.251.586.384.654.468 1.308.936 1.894 1.437a1877.158 1877.158 0 0 1-17.766-25.983zm-14.298 19.684a36.248 36.248 0 0 0-5.799 1.671c-8.012 3.091-14.297 8.973-17.029 16.208-.101 9.291-.134 18.966-.184 28.106 6.369-8.054 17.498-14.638 29.935-17.679 6.637-1.621 15.085-2.423 23.381-1.788 7.174.551 14.23 2.156 19.929 5.23a1772.974 1772.974 0 0 1-16.761-23.444c-9.017-7.135-21.521-10.677-33.472-8.304zM95.66 224.154l.017.017c8.682-10.46 5.38-6.517 13.694-16.208 3.771-15.607 2.279-28.524-4.693-40.672-6.554-11.396-17.968-21.321-32.131-27.972a3204.066 3204.066 0 0 1-28.008 4.829c16.912 8.305 30.64 20.186 39.74 34.372 9.202 14.354 13.007 30.094 11.012 45.534.118 0 .252.034.37.1zM85.32 236.87a860.017 860.017 0 0 1 8.715-10.744c.134-1.019.235-2.038.335-3.074 2.665-31.665-17.23-62.261-51.422-78.67l-.905.15c.787 3.576 1.625 8.873 1.29 14.22C70.686 180.258 86.341 209.4 85.32 236.87zM41.254 144.7a844.03 844.03 0 0 0-9.705 1.737l-5.23.953a135.532 135.532 0 0 1 16.091 10.677c.185-4.411-.435-9.023-1.156-13.367zm-36.59 5.865c.286 4.16.554 8.321.822 12.465.503 2.239 1.358 4.228 2.615 6.032 3.804 5.531 11.934 10.243 20.783 7.536 8.347-2.573 12.755-8.254 13.443-17.378-5.398-4.211-11.28-8.104-17.482-11.563-5.967 1.053-13.023 2.239-20.18 2.908zm77.487-98.671-8.364-5.514c-6.889-4.546-13.794-9.09-20.683-13.636 8.514 19.267 7.81 40.037-2.112 61.776a115.277 115.277 0 0 1-3.285 6.617c-8.28 15.457-20.968 31.08-37.796 46.57 5.984-1.069 10.677-1.704 16.66-2.523 5.028-.685 6.94-1.988 11.75-4.946a103.54 103.54 0 0 0 3.184-2.022c13.593-8.889 24.37-19.818 31.511-32.032 9.32-15.891 12.303-33.654 9.135-54.29zm3.302 2.172-2.18-1.437c4.208 17.261 1.476 35.29-7.927 52.184-9.018 16.209-23.8 30.162-41.702 39.385 5.632-.802 36.154-5.063 38.718-6.767 14.314-9.475 23.75-19.283 29.684-30.83 5.632-10.961 7.576-22.909 6.118-37.563-7.576-4.98-15.135-9.992-22.711-14.972zm134.473 13.368a180.126 180.126 0 0 1-40.293 7.085c-27.488 1.67-56.116-2.908-80.889-12.884l9.302 6.116-.033-.267c-.017-.2.134-.368.385-.384.235-.017.436.1.487.284.067.267.134.518.201.785l.067.334 16.71 10.995a.792.792 0 0 1 .436.034c32.718 9.624 66.944 17.762 94.482 2.857a2917.26 2917.26 0 0 1 15.001-13.819v-.184c0-.15.101-.25.268-.3a.54.54 0 0 1 .285-.017c4.794-4.395 9.571-8.723 14.197-12.917-8.062 4.545-18.085 8.572-30.606 12.282zm34.377-14.103a5818.38 5818.38 0 0 0-17.582 15.991c.486 18.447 12.554 35.057 33.103 45.567 2.346-.3 16.576-1.938 17.263-2.606-10.727-7.102-19.409-16.36-25.124-26.753-5.615-10.21-8.247-21.338-7.66-32.2zm48.071 56.947c-11.281-11.915-18.773-27.471-21.153-43.813-1.173-8.105-1.073-16.175.302-23.996 1.089-6.149 2.648-13.133 5.933-18.898-4.408 3.91-8.816 7.837-13.124 11.713a105.86 105.86 0 0 0-.67 2.423 61.718 61.718 0 0 0-1.374 7.436 78.115 78.115 0 0 0-.135 13.568v.017c.202 2.139.537 4.278.939 6.4.034.15.05.3.084.451.067.334.151.668.218.986 2.849 13.2 9.537 26.25 19.459 37.881.771.902 1.576 1.805 2.38 2.69a101.93 101.93 0 0 0 3.487 3.66l3.654-.518zm-4.526.668a89.987 89.987 0 0 1-5.531-5.498 88.767 88.767 0 0 1-4.911-5.831 63.882 63.882 0 0 1-2.213-3.041c-7.827-11.28-12.436-24.096-13.509-37.831v-.017a61.674 61.674 0 0 1-.251-8.054c.016-.735.033-1.47.083-2.206.068-1.136.168-2.256.302-3.375v-.017a83.072 83.072 0 0 1 1.308-8.739 625.136 625.136 0 0 0-4.626 4.16c-4.543 4.078-8.867 7.971-13.074 11.781-1.039 15.24 4.341 30.479 14.867 43.395 3.218 3.944 13.576 14.554 18.487 16.342.201-.133 7.425-.835 9.068-1.069zm-26.801 70.331c3.788-26.635 11.582-49.009 23.851-68.393-2.682.368-5.33.719-7.878 1.053-21.269 20.252-34.041 45.3-37.427 72.069-1.76 14.02-.955 28.524 2.565 43.061.05.184-.084.334-.302.368-.218.033-.419-.067-.486-.251-11.834-39.151 1.089-83.164 33.706-114.98-7.861 1.003-15.286 1.872-23.097 2.808-2.195.267-4.491.534-7.056.818-.855.101-1.743.201-2.665.301-21.203 26.452-27.723 57.047-18.336 86.155a2175.726 2175.726 0 0 0 34.393 48.642c-.486-23.159-.67-47.739 2.732-71.651zm-2.631 75.344-.034-1.737c-2.531-3.393-5.045-6.835-7.576-10.294l-.05-.016a286.942 286.942 0 0 1-5.112-1.337c-5.766-1.537-11.213-2.991-17.381-3.375-7.727-.452-15.588.367-22.762 2.372-33.203 9.324-28.376 26.535-28.829 48.759 4.073-5.547 9.185-10.544 15.052-14.871a85.684 85.684 0 0 1 4.525-3.125 80.028 80.028 0 0 1 4.794-2.857c16.375-9.091 36.623-13.719 56.535-12.215 1.106.083 2.195.184 3.302.3l-.336-.451c-.318-.417-.62-.835-.938-1.253v.15c0 .251-.235.435-.553.435-.302.017-.637-.184-.637-.485z" fill="#CBCBCB"/>
    </g>
    <defs>
        <clipPath id="8nyqy8vuwa">
            <path fill="#fff" d="M0 0h325v313H0z"/>
        </clipPath>
    </defs>
</svg>
